<mxfile host="app.diagrams.net" modified="2024-06-19T09:25:16.922Z" agent="Mozilla/5.0 (Windows NT 10.0; Win64; x64) AppleWebKit/537.36 (KHTML, like Gecko) Chrome/126.0.0.0 Safari/537.36 Edg/126.0.0.0" etag="7cLe2Y6YeAB_7UUBj_ws" version="24.5.4" type="github">
  <diagram name="第 1 页" id="uyAbJPCU5nc3QQ5s_u8B">
    <mxGraphModel dx="984" dy="1135" grid="1" gridSize="10" guides="1" tooltips="1" connect="1" arrows="1" fold="1" page="1" pageScale="1" pageWidth="1169" pageHeight="827" math="0" shadow="0">
      <root>
        <mxCell id="0" />
        <mxCell id="1" parent="0" />
        <mxCell id="-fUd8mvjqW7z8OppA-Cu-4" value="" style="shape=image;verticalLabelPosition=bottom;labelBackgroundColor=default;verticalAlign=top;aspect=fixed;imageAspect=0;image=https://public.rootdata.com/images/b6/1709800626126.jpg;" vertex="1" parent="1">
          <mxGeometry x="240" y="260" width="100" height="100" as="geometry" />
        </mxCell>
        <mxCell id="-fUd8mvjqW7z8OppA-Cu-5" value="&lt;font style=&quot;font-size: 14px;&quot;&gt;Lorenzo&lt;/font&gt;" style="text;html=1;align=center;verticalAlign=middle;resizable=0;points=[];autosize=1;strokeColor=none;fillColor=none;" vertex="1" parent="1">
          <mxGeometry x="255" y="360" width="70" height="30" as="geometry" />
        </mxCell>
        <mxCell id="-fUd8mvjqW7z8OppA-Cu-6" value="" style="shape=image;verticalLabelPosition=bottom;labelBackgroundColor=default;verticalAlign=top;aspect=fixed;imageAspect=0;image=https://public.rootdata.com/images/b6/1714634065091.jpg;" vertex="1" parent="1">
          <mxGeometry x="385" y="440" width="100" height="100" as="geometry" />
        </mxCell>
        <mxCell id="-fUd8mvjqW7z8OppA-Cu-8" value="" style="shape=image;verticalLabelPosition=bottom;labelBackgroundColor=default;verticalAlign=top;aspect=fixed;imageAspect=0;image=https://public.rootdata.com/images/b6/1718536314113.jpg;" vertex="1" parent="1">
          <mxGeometry x="520" y="610" width="100" height="100" as="geometry" />
        </mxCell>
        <mxCell id="-fUd8mvjqW7z8OppA-Cu-9" value="&lt;span style=&quot;font-size: 14px;&quot;&gt;Lombard&lt;/span&gt;" style="text;html=1;align=center;verticalAlign=middle;resizable=0;points=[];autosize=1;strokeColor=none;fillColor=none;" vertex="1" parent="1">
          <mxGeometry x="530" y="710" width="80" height="30" as="geometry" />
        </mxCell>
        <mxCell id="-fUd8mvjqW7z8OppA-Cu-13" value="" style="shape=image;verticalLabelPosition=bottom;labelBackgroundColor=default;verticalAlign=top;aspect=fixed;imageAspect=0;image=https://public.rootdata.com/images/b17/1666493879216.jpg;" vertex="1" parent="1">
          <mxGeometry x="530" y="440" width="100" height="100" as="geometry" />
        </mxCell>
        <mxCell id="-fUd8mvjqW7z8OppA-Cu-14" value="&lt;span style=&quot;font-size: 14px;&quot;&gt;pSTAKE&lt;/span&gt;" style="text;html=1;align=center;verticalAlign=middle;resizable=0;points=[];autosize=1;strokeColor=none;fillColor=none;" vertex="1" parent="1">
          <mxGeometry x="540" y="540" width="80" height="30" as="geometry" />
        </mxCell>
        <mxCell id="-fUd8mvjqW7z8OppA-Cu-15" value="" style="shape=image;verticalLabelPosition=bottom;labelBackgroundColor=default;verticalAlign=top;aspect=fixed;imageAspect=0;image=https://public.rootdata.com/images/b6/1713920915911.jpg;" vertex="1" parent="1">
          <mxGeometry x="530" y="260" width="100" height="100" as="geometry" />
        </mxCell>
        <mxCell id="-fUd8mvjqW7z8OppA-Cu-16" value="&lt;span style=&quot;font-size: 14px;&quot;&gt;Solv&lt;/span&gt;" style="text;html=1;align=center;verticalAlign=middle;resizable=0;points=[];autosize=1;strokeColor=none;fillColor=none;" vertex="1" parent="1">
          <mxGeometry x="555" y="360" width="50" height="30" as="geometry" />
        </mxCell>
        <mxCell id="-fUd8mvjqW7z8OppA-Cu-17" value="" style="shape=image;verticalLabelPosition=bottom;labelBackgroundColor=default;verticalAlign=top;aspect=fixed;imageAspect=0;image=https://pbs.twimg.com/profile_images/1653070292024168448/0Itcm4uC_400x400.jpg;" vertex="1" parent="1">
          <mxGeometry x="240" y="440" width="100" height="100" as="geometry" />
        </mxCell>
        <mxCell id="-fUd8mvjqW7z8OppA-Cu-18" value="&lt;font style=&quot;font-size: 14px;&quot;&gt;Ankr Staking&lt;/font&gt;" style="text;html=1;align=center;verticalAlign=middle;resizable=0;points=[];autosize=1;strokeColor=none;fillColor=none;" vertex="1" parent="1">
          <mxGeometry x="240" y="540" width="100" height="30" as="geometry" />
        </mxCell>
        <mxCell id="-fUd8mvjqW7z8OppA-Cu-19" value="" style="shape=image;verticalLabelPosition=bottom;labelBackgroundColor=default;verticalAlign=top;aspect=fixed;imageAspect=0;image=https://pbs.twimg.com/profile_images/1767834956510998528/R1CpB_Vn_400x400.jpg;" vertex="1" parent="1">
          <mxGeometry x="820" y="435" width="105" height="105" as="geometry" />
        </mxCell>
        <mxCell id="-fUd8mvjqW7z8OppA-Cu-20" value="&lt;span style=&quot;font-size: 14px;&quot;&gt;UniRouter&lt;/span&gt;" style="text;html=1;align=center;verticalAlign=middle;resizable=0;points=[];autosize=1;strokeColor=none;fillColor=none;" vertex="1" parent="1">
          <mxGeometry x="825" y="540" width="90" height="30" as="geometry" />
        </mxCell>
        <mxCell id="-fUd8mvjqW7z8OppA-Cu-21" value="" style="shape=image;verticalLabelPosition=bottom;labelBackgroundColor=default;verticalAlign=top;aspect=fixed;imageAspect=0;image=https://pbs.twimg.com/profile_images/1758483815830532097/KielJ7DY_400x400.jpg;" vertex="1" parent="1">
          <mxGeometry x="680" y="440" width="100" height="100" as="geometry" />
        </mxCell>
        <mxCell id="-fUd8mvjqW7z8OppA-Cu-22" value="&lt;span style=&quot;font-size: 14px;&quot;&gt;Master Protocol&lt;/span&gt;" style="text;html=1;align=center;verticalAlign=middle;resizable=0;points=[];autosize=1;strokeColor=none;fillColor=none;" vertex="1" parent="1">
          <mxGeometry x="670" y="540" width="120" height="30" as="geometry" />
        </mxCell>
        <mxCell id="-fUd8mvjqW7z8OppA-Cu-25" value="" style="shape=image;verticalLabelPosition=bottom;labelBackgroundColor=default;verticalAlign=top;aspect=fixed;imageAspect=0;image=https://pbs.twimg.com/profile_images/1743294053247307776/UG7myCUz_400x400.jpg;" vertex="1" parent="1">
          <mxGeometry x="385" y="268" width="100" height="100" as="geometry" />
        </mxCell>
        <mxCell id="-fUd8mvjqW7z8OppA-Cu-27" value="&lt;span style=&quot;font-size: 14px;&quot;&gt;Kinza Finance&lt;/span&gt;" style="text;html=1;align=center;verticalAlign=middle;resizable=0;points=[];autosize=1;strokeColor=none;fillColor=none;" vertex="1" parent="1">
          <mxGeometry x="380" y="369.5" width="110" height="30" as="geometry" />
        </mxCell>
        <mxCell id="-fUd8mvjqW7z8OppA-Cu-28" value="&lt;font style=&quot;font-size: 24px;&quot;&gt;Binance Labs&lt;/font&gt;" style="text;html=1;align=center;verticalAlign=middle;resizable=0;points=[];autosize=1;strokeColor=none;fillColor=none;" vertex="1" parent="1">
          <mxGeometry x="30" y="290" width="170" height="40" as="geometry" />
        </mxCell>
        <mxCell id="-fUd8mvjqW7z8OppA-Cu-29" value="&lt;font style=&quot;font-size: 24px;&quot;&gt;Multi Chain&lt;/font&gt;" style="text;html=1;align=center;verticalAlign=middle;resizable=0;points=[];autosize=1;strokeColor=none;fillColor=none;" vertex="1" parent="1">
          <mxGeometry x="45" y="450" width="140" height="40" as="geometry" />
        </mxCell>
        <mxCell id="-fUd8mvjqW7z8OppA-Cu-30" value="&lt;font style=&quot;font-size: 24px;&quot;&gt;Babylon eco&lt;/font&gt;" style="text;html=1;align=center;verticalAlign=middle;resizable=0;points=[];autosize=1;strokeColor=none;fillColor=none;" vertex="1" parent="1">
          <mxGeometry x="40" y="623.5" width="160" height="40" as="geometry" />
        </mxCell>
        <mxCell id="-fUd8mvjqW7z8OppA-Cu-31" value="" style="shape=image;verticalLabelPosition=bottom;labelBackgroundColor=default;verticalAlign=top;aspect=fixed;imageAspect=0;image=https://public.rootdata.com/images/b12/1698909190184.jpg;" vertex="1" parent="1">
          <mxGeometry x="385" y="610" width="100" height="100" as="geometry" />
        </mxCell>
        <mxCell id="-fUd8mvjqW7z8OppA-Cu-34" value="&lt;span style=&quot;font-size: 14px;&quot;&gt;Nomic&lt;/span&gt;" style="text;html=1;align=center;verticalAlign=middle;resizable=0;points=[];autosize=1;strokeColor=none;fillColor=none;" vertex="1" parent="1">
          <mxGeometry x="410" y="710" width="60" height="30" as="geometry" />
        </mxCell>
        <mxCell id="-fUd8mvjqW7z8OppA-Cu-35" value="" style="shape=image;verticalLabelPosition=bottom;labelBackgroundColor=default;verticalAlign=top;aspect=fixed;imageAspect=0;image=https://pbs.twimg.com/profile_images/1761648811527884800/6aUHq4w2_400x400.jpg;" vertex="1" parent="1">
          <mxGeometry x="240" y="610" width="100" height="100" as="geometry" />
        </mxCell>
        <mxCell id="-fUd8mvjqW7z8OppA-Cu-36" value="&lt;span style=&quot;font-size: 14px;&quot;&gt;Chakra&lt;/span&gt;" style="text;html=1;align=center;verticalAlign=middle;resizable=0;points=[];autosize=1;strokeColor=none;fillColor=none;" vertex="1" parent="1">
          <mxGeometry x="255" y="710" width="70" height="30" as="geometry" />
        </mxCell>
        <mxCell id="-fUd8mvjqW7z8OppA-Cu-37" value="" style="shape=image;verticalLabelPosition=bottom;labelBackgroundColor=default;verticalAlign=top;aspect=fixed;imageAspect=0;image=https://public.rootdata.com/images/b6/1713920915911.jpg;" vertex="1" parent="1">
          <mxGeometry x="670" y="610" width="100" height="100" as="geometry" />
        </mxCell>
        <mxCell id="-fUd8mvjqW7z8OppA-Cu-38" value="&lt;span style=&quot;font-size: 14px;&quot;&gt;Solv&lt;/span&gt;" style="text;html=1;align=center;verticalAlign=middle;resizable=0;points=[];autosize=1;strokeColor=none;fillColor=none;" vertex="1" parent="1">
          <mxGeometry x="695" y="710" width="50" height="30" as="geometry" />
        </mxCell>
        <mxCell id="-fUd8mvjqW7z8OppA-Cu-39" value="&lt;font style=&quot;font-size: 14px;&quot;&gt;Bedrock&lt;/font&gt;" style="text;html=1;align=center;verticalAlign=middle;resizable=0;points=[];autosize=1;strokeColor=none;fillColor=none;" vertex="1" parent="1">
          <mxGeometry x="400" y="540" width="70" height="30" as="geometry" />
        </mxCell>
        <mxCell id="-fUd8mvjqW7z8OppA-Cu-40" value="" style="shape=image;verticalLabelPosition=bottom;labelBackgroundColor=default;verticalAlign=top;aspect=fixed;imageAspect=0;image=https://public.rootdata.com/images/b6/1714634065091.jpg;" vertex="1" parent="1">
          <mxGeometry x="805" y="610" width="100" height="100" as="geometry" />
        </mxCell>
        <mxCell id="-fUd8mvjqW7z8OppA-Cu-41" value="&lt;font style=&quot;font-size: 14px;&quot;&gt;Bedrock&lt;/font&gt;" style="text;html=1;align=center;verticalAlign=middle;resizable=0;points=[];autosize=1;strokeColor=none;fillColor=none;" vertex="1" parent="1">
          <mxGeometry x="820" y="710" width="70" height="30" as="geometry" />
        </mxCell>
        <mxCell id="-fUd8mvjqW7z8OppA-Cu-42" value="" style="shape=image;verticalLabelPosition=bottom;labelBackgroundColor=default;verticalAlign=top;aspect=fixed;imageAspect=0;image=https://public.rootdata.com/images/b17/1666493879216.jpg;" vertex="1" parent="1">
          <mxGeometry x="940" y="610" width="100" height="100" as="geometry" />
        </mxCell>
        <mxCell id="-fUd8mvjqW7z8OppA-Cu-43" value="&lt;span style=&quot;font-size: 14px;&quot;&gt;pSTAKE&lt;/span&gt;" style="text;html=1;align=center;verticalAlign=middle;resizable=0;points=[];autosize=1;strokeColor=none;fillColor=none;" vertex="1" parent="1">
          <mxGeometry x="950" y="710" width="80" height="30" as="geometry" />
        </mxCell>
        <mxCell id="-fUd8mvjqW7z8OppA-Cu-44" value="&lt;font style=&quot;font-size: 72px;&quot;&gt;Bitcoin LST/LRT&lt;/font&gt;" style="text;html=1;align=center;verticalAlign=middle;resizable=0;points=[];autosize=1;strokeColor=none;fillColor=none;" vertex="1" parent="1">
          <mxGeometry x="305" y="90" width="550" height="100" as="geometry" />
        </mxCell>
      </root>
    </mxGraphModel>
  </diagram>
</mxfile>
